solid Exported from Blender-2.71 (sub 0)
facet normal -0.296016 -0.308107 0.904126
outer loop
vertex -0.000852 -0.001759 0.002276
vertex 0.101267 -0.004702 0.034707
vertex 0.101148 -0.002939 0.035269
endloop
endfacet
facet normal -0.296015 -0.308123 0.904121
outer loop
vertex 0.101148 -0.002939 0.035269
vertex -0.000985 0.000005 0.002834
vertex -0.000852 -0.001759 0.002276
endloop
endfacet
facet normal -0.199311 -0.808147 0.554232
outer loop
vertex 0.101267 -0.004702 0.034707
vertex -0.000852 -0.001759 0.002276
vertex -0.000394 -0.002850 0.000849
endloop
endfacet
facet normal -0.199324 -0.808115 0.554275
outer loop
vertex -0.000394 -0.002850 0.000849
vertex 0.101654 -0.005792 0.033258
vertex 0.101267 -0.004702 0.034707
endloop
endfacet
facet normal -0.026435 -0.999622 -0.007500
outer loop
vertex 0.000215 -0.002853 -0.000902
vertex 0.102160 -0.005792 0.031474
vertex 0.101654 -0.005792 0.033258
endloop
endfacet
facet normal -0.026430 -0.999622 -0.007513
outer loop
vertex 0.101654 -0.005792 0.033258
vertex -0.000394 -0.002850 0.000849
vertex 0.000215 -0.002853 -0.000902
endloop
endfacet
facet normal 0.156591 -0.809047 -0.566500
outer loop
vertex 0.000742 -0.001766 -0.002309
vertex 0.102592 -0.004702 0.030038
vertex 0.102160 -0.005792 0.031474
endloop
endfacet
facet normal 0.156577 -0.809077 -0.566461
outer loop
vertex 0.102160 -0.005792 0.031474
vertex 0.000215 -0.002853 -0.000902
vertex 0.000742 -0.001766 -0.002309
endloop
endfacet
facet normal 0.279721 -0.309431 -0.908850
outer loop
vertex 0.000985 -0.000005 -0.002834
vertex 0.102785 -0.002939 0.029497
vertex 0.102592 -0.004702 0.030038
endloop
endfacet
facet normal 0.279714 -0.309479 -0.908836
outer loop
vertex 0.102592 -0.004702 0.030038
vertex 0.000742 -0.001766 -0.002309
vertex 0.000985 -0.000005 -0.002834
endloop
endfacet
facet normal 0.296022 0.308108 -0.904124
outer loop
vertex 0.000852 0.001759 -0.002276
vertex 0.102666 -0.001176 0.030059
vertex 0.102785 -0.002939 0.029497
endloop
endfacet
facet normal 0.296021 0.308123 -0.904119
outer loop
vertex 0.102785 -0.002939 0.029497
vertex 0.000985 -0.000005 -0.002834
vertex 0.000852 0.001759 -0.002276
endloop
endfacet
facet normal 0.199327 0.808114 -0.554275
outer loop
vertex 0.000394 0.002850 -0.000849
vertex 0.102279 -0.000087 0.031508
vertex 0.102666 -0.001176 0.030059
endloop
endfacet
facet normal 0.199315 0.808147 -0.554231
outer loop
vertex 0.102666 -0.001176 0.030059
vertex 0.000852 0.001759 -0.002276
vertex 0.000394 0.002850 -0.000849
endloop
endfacet
facet normal 0.026435 0.999622 0.007499
outer loop
vertex -0.000215 0.002853 0.000902
vertex 0.101773 -0.000087 0.033292
vertex 0.102279 -0.000087 0.031508
endloop
endfacet
facet normal 0.026431 0.999622 0.007513
outer loop
vertex 0.102279 -0.000087 0.031508
vertex 0.000394 0.002850 -0.000849
vertex -0.000215 0.002853 0.000902
endloop
endfacet
facet normal -0.156588 0.809047 0.566500
outer loop
vertex -0.000742 0.001766 0.002309
vertex 0.101341 -0.001176 0.034729
vertex 0.101773 -0.000087 0.033292
endloop
endfacet
facet normal -0.156576 0.809077 0.566461
outer loop
vertex 0.101773 -0.000087 0.033292
vertex -0.000215 0.002853 0.000902
vertex -0.000742 0.001766 0.002309
endloop
endfacet
facet normal -0.279715 0.309430 0.908852
outer loop
vertex -0.000985 0.000005 0.002834
vertex 0.101148 -0.002939 0.035269
vertex 0.101341 -0.001176 0.034729
endloop
endfacet
facet normal -0.279710 0.309479 0.908837
outer loop
vertex 0.101341 -0.001176 0.034729
vertex -0.000742 0.001766 0.002309
vertex -0.000985 0.000005 0.002834
endloop
endfacet
facet normal -0.235798 -0.309451 0.921216
outer loop
vertex 0.101267 -0.004702 0.034707
vertex 0.190147 -0.006187 0.056959
vertex 0.190045 -0.004425 0.057525
endloop
endfacet
facet normal -0.235796 -0.309475 0.921209
outer loop
vertex 0.190045 -0.004425 0.057525
vertex 0.101148 -0.002939 0.035269
vertex 0.101267 -0.004702 0.034707
endloop
endfacet
facet normal -0.155420 -0.809061 0.566802
outer loop
vertex 0.101654 -0.005792 0.033258
vertex 0.190447 -0.007276 0.055488
vertex 0.190147 -0.006187 0.056959
endloop
endfacet
facet normal -0.155402 -0.809112 0.566734
outer loop
vertex 0.190147 -0.006187 0.056959
vertex 0.101267 -0.004702 0.034707
vertex 0.101654 -0.005792 0.033258
endloop
endfacet
facet normal -0.015603 -0.999869 -0.004409
outer loop
vertex 0.102160 -0.005792 0.031474
vertex 0.190831 -0.007274 0.053674
vertex 0.190447 -0.007276 0.055488
endloop
endfacet
facet normal -0.015599 -0.999869 -0.004426
outer loop
vertex 0.190447 -0.007276 0.055488
vertex 0.101654 -0.005792 0.033258
vertex 0.102160 -0.005792 0.031474
endloop
endfacet
facet normal 0.130214 -0.808396 -0.574057
outer loop
vertex 0.102592 -0.004702 0.030038
vertex 0.191153 -0.006182 0.052210
vertex 0.190831 -0.007274 0.053674
endloop
endfacet
facet normal 0.130194 -0.808448 -0.573988
outer loop
vertex 0.190831 -0.007274 0.053674
vertex 0.102160 -0.005792 0.031474
vertex 0.102592 -0.004702 0.030038
endloop
endfacet
facet normal 0.226201 -0.308141 -0.924057
outer loop
vertex 0.102785 -0.002939 0.029497
vertex 0.191288 -0.004418 0.051655
vertex 0.191153 -0.006182 0.052210
endloop
endfacet
facet normal 0.226193 -0.308215 -0.924035
outer loop
vertex 0.191153 -0.006182 0.052210
vertex 0.102592 -0.004702 0.030038
vertex 0.102785 -0.002939 0.029497
endloop
endfacet
facet normal 0.235809 0.309455 -0.921212
outer loop
vertex 0.102666 -0.001176 0.030059
vertex 0.191187 -0.002656 0.052221
vertex 0.191288 -0.004418 0.051655
endloop
endfacet
facet normal 0.235808 0.309476 -0.921205
outer loop
vertex 0.191288 -0.004418 0.051655
vertex 0.102785 -0.002939 0.029497
vertex 0.102666 -0.001176 0.030059
endloop
endfacet
facet normal 0.155424 0.809061 -0.566802
outer loop
vertex 0.102279 -0.000087 0.031508
vertex 0.190886 -0.001568 0.053692
vertex 0.191187 -0.002656 0.052221
endloop
endfacet
facet normal 0.155409 0.809112 -0.566733
outer loop
vertex 0.191187 -0.002656 0.052221
vertex 0.102666 -0.001176 0.030059
vertex 0.102279 -0.000087 0.031508
endloop
endfacet
facet normal 0.015603 0.999869 0.004409
outer loop
vertex 0.101773 -0.000087 0.033292
vertex 0.190502 -0.001570 0.055506
vertex 0.190886 -0.001568 0.053692
endloop
endfacet
facet normal 0.015599 0.999869 0.004426
outer loop
vertex 0.190886 -0.001568 0.053692
vertex 0.102279 -0.000087 0.031508
vertex 0.101773 -0.000087 0.033292
endloop
endfacet
facet normal -0.130209 0.808396 0.574057
outer loop
vertex 0.101341 -0.001176 0.034729
vertex 0.190181 -0.002661 0.056970
vertex 0.190502 -0.001570 0.055506
endloop
endfacet
facet normal -0.130193 0.808448 0.573988
outer loop
vertex 0.190502 -0.001570 0.055506
vertex 0.101773 -0.000087 0.033292
vertex 0.101341 -0.001176 0.034729
endloop
endfacet
facet normal -0.226191 0.308138 0.924061
outer loop
vertex 0.101148 -0.002939 0.035269
vertex 0.190045 -0.004425 0.057525
vertex 0.190181 -0.002661 0.056970
endloop
endfacet
facet normal -0.226185 0.308214 0.924037
outer loop
vertex 0.190181 -0.002661 0.056970
vertex 0.101341 -0.001176 0.034729
vertex 0.101148 -0.002939 0.035269
endloop
endfacet
facet normal -0.164055 -0.310155 0.936424
outer loop
vertex 0.190147 -0.006187 0.056959
vertex 0.266937 -0.006490 0.070312
vertex 0.266858 -0.004727 0.070882
endloop
endfacet
facet normal -0.164053 -0.310188 0.936413
outer loop
vertex 0.266858 -0.004727 0.070882
vertex 0.190045 -0.004425 0.057525
vertex 0.190147 -0.006187 0.056959
endloop
endfacet
facet normal -0.103673 -0.809530 0.577853
outer loop
vertex 0.190447 -0.007276 0.055488
vertex 0.267134 -0.007578 0.068823
vertex 0.266937 -0.006490 0.070312
endloop
endfacet
facet normal -0.103656 -0.809593 0.577767
outer loop
vertex 0.266937 -0.006490 0.070312
vertex 0.190147 -0.006187 0.056959
vertex 0.190447 -0.007276 0.055488
endloop
endfacet
facet normal -0.003616 -0.999992 -0.001857
outer loop
vertex 0.190831 -0.007274 0.053674
vertex 0.267374 -0.007575 0.066985
vertex 0.267134 -0.007578 0.068823
endloop
endfacet
facet normal -0.003614 -0.999992 -0.001869
outer loop
vertex 0.267134 -0.007578 0.068823
vertex 0.190447 -0.007276 0.055488
vertex 0.190831 -0.007274 0.053674
endloop
endfacet
facet normal 0.097857 -0.807993 -0.581008
outer loop
vertex 0.191153 -0.006182 0.052210
vertex 0.267564 -0.006483 0.065498
vertex 0.267374 -0.007575 0.066985
endloop
endfacet
facet normal 0.097837 -0.808063 -0.580915
outer loop
vertex 0.267374 -0.007575 0.066985
vertex 0.190831 -0.007274 0.053674
vertex 0.191153 -0.006182 0.052210
endloop
endfacet
facet normal 0.161865 -0.307378 -0.937720
outer loop
vertex 0.191288 -0.004418 0.051655
vertex 0.267633 -0.004719 0.064932
vertex 0.267564 -0.006483 0.065498
endloop
endfacet
facet normal 0.161857 -0.307480 -0.937688
outer loop
vertex 0.267564 -0.006483 0.065498
vertex 0.191153 -0.006182 0.052210
vertex 0.191288 -0.004418 0.051655
endloop
endfacet
facet normal 0.164071 0.310157 -0.936421
outer loop
vertex 0.191187 -0.002656 0.052221
vertex 0.267555 -0.002957 0.065502
vertex 0.267633 -0.004719 0.064932
endloop
endfacet
facet normal 0.164070 0.310191 -0.936409
outer loop
vertex 0.267633 -0.004719 0.064932
vertex 0.191288 -0.004418 0.051655
vertex 0.191187 -0.002656 0.052221
endloop
endfacet
facet normal 0.103679 0.809528 -0.577853
outer loop
vertex 0.190886 -0.001568 0.053692
vertex 0.267358 -0.001869 0.066990
vertex 0.267555 -0.002957 0.065502
endloop
endfacet
facet normal 0.103666 0.809593 -0.577765
outer loop
vertex 0.267555 -0.002957 0.065502
vertex 0.191187 -0.002656 0.052221
vertex 0.190886 -0.001568 0.053692
endloop
endfacet
facet normal 0.003616 0.999992 0.001857
outer loop
vertex 0.190502 -0.001570 0.055506
vertex 0.267118 -0.001871 0.068829
vertex 0.267358 -0.001869 0.066990
endloop
endfacet
facet normal 0.003614 0.999992 0.001870
outer loop
vertex 0.267358 -0.001869 0.066990
vertex 0.190886 -0.001568 0.053692
vertex 0.190502 -0.001570 0.055506
endloop
endfacet
facet normal -0.097850 0.807993 0.581010
outer loop
vertex 0.190181 -0.002661 0.056970
vertex 0.266928 -0.002963 0.070315
vertex 0.267118 -0.001871 0.068829
endloop
endfacet
facet normal -0.097836 0.808064 0.580914
outer loop
vertex 0.267118 -0.001871 0.068829
vertex 0.190502 -0.001570 0.055506
vertex 0.190181 -0.002661 0.056970
endloop
endfacet
facet normal -0.161848 0.307379 0.937722
outer loop
vertex 0.190045 -0.004425 0.057525
vertex 0.266858 -0.004727 0.070882
vertex 0.266928 -0.002963 0.070315
endloop
endfacet
facet normal -0.161845 0.307476 0.937691
outer loop
vertex 0.266928 -0.002963 0.070315
vertex 0.190181 -0.002661 0.056970
vertex 0.190045 -0.004425 0.057525
endloop
endfacet
facet normal -0.079662 -0.309889 0.947430
outer loop
vertex 0.266937 -0.006490 0.070312
vertex 0.332785 -0.005886 0.076046
vertex 0.332736 -0.004123 0.076618
endloop
endfacet
facet normal -0.079659 -0.309930 0.947416
outer loop
vertex 0.332736 -0.004123 0.076618
vertex 0.266858 -0.004727 0.070882
vertex 0.266937 -0.006490 0.070312
endloop
endfacet
facet normal -0.043589 -0.809300 0.585777
outer loop
vertex 0.267134 -0.007578 0.068823
vertex 0.332859 -0.006975 0.074547
vertex 0.332785 -0.005886 0.076046
endloop
endfacet
facet normal -0.043577 -0.809370 0.585681
outer loop
vertex 0.332785 -0.005886 0.076046
vertex 0.266937 -0.006490 0.070312
vertex 0.267134 -0.007578 0.068823
endloop
endfacet
facet normal 0.009191 -0.999958 -0.000190
outer loop
vertex 0.267374 -0.007575 0.066985
vertex 0.332929 -0.006974 0.072694
vertex 0.332859 -0.006975 0.074547
endloop
endfacet
facet normal 0.009191 -0.999958 -0.000189
outer loop
vertex 0.332859 -0.006975 0.074547
vertex 0.267134 -0.007578 0.068823
vertex 0.267374 -0.007575 0.066985
endloop
endfacet
facet normal 0.058479 -0.808010 -0.586259
outer loop
vertex 0.267564 -0.006483 0.065498
vertex 0.332969 -0.005883 0.071195
vertex 0.332929 -0.006974 0.072694
endloop
endfacet
facet normal 0.058465 -0.808098 -0.586139
outer loop
vertex 0.332929 -0.006974 0.072694
vertex 0.267374 -0.007575 0.066985
vertex 0.267564 -0.006483 0.065498
endloop
endfacet
facet normal 0.085375 -0.307462 -0.947723
outer loop
vertex 0.267633 -0.004719 0.064932
vertex 0.332964 -0.004120 0.070623
vertex 0.332969 -0.005883 0.071195
endloop
endfacet
facet normal 0.085369 -0.307580 -0.947685
outer loop
vertex 0.332969 -0.005883 0.071195
vertex 0.267564 -0.006483 0.065498
vertex 0.267633 -0.004719 0.064932
endloop
endfacet
facet normal 0.079683 0.309885 -0.947429
outer loop
vertex 0.267555 -0.002957 0.065502
vertex 0.332914 -0.002357 0.071195
vertex 0.332964 -0.004120 0.070623
endloop
endfacet
facet normal 0.079683 0.309932 -0.947414
outer loop
vertex 0.332964 -0.004120 0.070623
vertex 0.267633 -0.004719 0.064932
vertex 0.267555 -0.002957 0.065502
endloop
endfacet
facet normal 0.043596 0.809298 -0.585778
outer loop
vertex 0.267358 -0.001869 0.066990
vertex 0.332840 -0.001268 0.072694
vertex 0.332914 -0.002357 0.071195
endloop
endfacet
facet normal 0.043590 0.809369 -0.585681
outer loop
vertex 0.332914 -0.002357 0.071195
vertex 0.267555 -0.002957 0.065502
vertex 0.267358 -0.001869 0.066990
endloop
endfacet
facet normal -0.009191 0.999958 0.000190
outer loop
vertex 0.267118 -0.001871 0.068829
vertex 0.332770 -0.001269 0.074547
vertex 0.332840 -0.001268 0.072694
endloop
endfacet
facet normal -0.009191 0.999958 0.000189
outer loop
vertex 0.332840 -0.001268 0.072694
vertex 0.267358 -0.001869 0.066990
vertex 0.267118 -0.001871 0.068829
endloop
endfacet
facet normal -0.058468 0.808010 0.586260
outer loop
vertex 0.266928 -0.002963 0.070315
vertex 0.332730 -0.002359 0.076046
vertex 0.332770 -0.001269 0.074547
endloop
endfacet
facet normal -0.058463 0.808098 0.586140
outer loop
vertex 0.332770 -0.001269 0.074547
vertex 0.267118 -0.001871 0.068829
vertex 0.266928 -0.002963 0.070315
endloop
endfacet
facet normal -0.085350 0.307471 0.947722
outer loop
vertex 0.266858 -0.004727 0.070882
vertex 0.332736 -0.004123 0.076618
vertex 0.332730 -0.002359 0.076046
endloop
endfacet
facet normal -0.085351 0.307582 0.947686
outer loop
vertex 0.332730 -0.002359 0.076046
vertex 0.266928 -0.002963 0.070315
vertex 0.266858 -0.004727 0.070882
endloop
endfacet
facet normal 0.017087 -0.308329 0.951126
outer loop
vertex 0.332785 -0.005886 0.076046
vertex 0.388829 -0.004651 0.075439
vertex 0.388818 -0.002888 0.076011
endloop
endfacet
facet normal 0.017089 -0.308380 0.951110
outer loop
vertex 0.388818 -0.002888 0.076011
vertex 0.332736 -0.004123 0.076618
vertex 0.332785 -0.005886 0.076046
endloop
endfacet
facet normal 0.024168 -0.808183 0.588435
outer loop
vertex 0.332859 -0.006975 0.074547
vertex 0.388762 -0.005743 0.073942
vertex 0.388829 -0.004651 0.075439
endloop
endfacet
facet normal 0.024172 -0.808240 0.588356
outer loop
vertex 0.388829 -0.004651 0.075439
vertex 0.332785 -0.005886 0.076046
vertex 0.332859 -0.006975 0.074547
endloop
endfacet
facet normal 0.022027 -0.999757 0.000262
outer loop
vertex 0.332929 -0.006974 0.072694
vertex 0.388642 -0.005746 0.072092
vertex 0.388762 -0.005743 0.073942
endloop
endfacet
facet normal 0.022026 -0.999757 0.000298
outer loop
vertex 0.388762 -0.005743 0.073942
vertex 0.332859 -0.006975 0.074547
vertex 0.332929 -0.006974 0.072694
endloop
endfacet
facet normal 0.011463 -0.808647 -0.588182
outer loop
vertex 0.332969 -0.005883 0.071195
vertex 0.388515 -0.004659 0.070595
vertex 0.388642 -0.005746 0.072092
endloop
endfacet
facet normal 0.011461 -0.808745 -0.588048
outer loop
vertex 0.388642 -0.005746 0.072092
vertex 0.332929 -0.006974 0.072694
vertex 0.332969 -0.005883 0.071195
endloop
endfacet
facet normal -0.003467 -0.308750 -0.951137
outer loop
vertex 0.332964 -0.004120 0.070623
vertex 0.388429 -0.002898 0.070024
vertex 0.388515 -0.004659 0.070595
endloop
endfacet
facet normal -0.003468 -0.308851 -0.951104
outer loop
vertex 0.388515 -0.004659 0.070595
vertex 0.332969 -0.005883 0.071195
vertex 0.332964 -0.004120 0.070623
endloop
endfacet
facet normal -0.017064 0.308329 -0.951127
outer loop
vertex 0.332914 -0.002357 0.071195
vertex 0.388417 -0.001134 0.070596
vertex 0.388429 -0.002898 0.070024
endloop
endfacet
facet normal -0.017063 0.308377 -0.951111
outer loop
vertex 0.388429 -0.002898 0.070024
vertex 0.332964 -0.004120 0.070623
vertex 0.332914 -0.002357 0.071195
endloop
endfacet
facet normal -0.024162 0.808185 -0.588433
outer loop
vertex 0.332840 -0.001268 0.072694
vertex 0.388484 -0.000042 0.072093
vertex 0.388417 -0.001134 0.070596
endloop
endfacet
facet normal -0.024160 0.808240 -0.588358
outer loop
vertex 0.388417 -0.001134 0.070596
vertex 0.332914 -0.002357 0.071195
vertex 0.332840 -0.001268 0.072694
endloop
endfacet
facet normal -0.022026 0.999757 -0.000262
outer loop
vertex 0.332770 -0.001269 0.074547
vertex 0.388604 -0.000039 0.073943
vertex 0.388484 -0.000042 0.072093
endloop
endfacet
facet normal -0.022028 0.999757 -0.000298
outer loop
vertex 0.388484 -0.000042 0.072093
vertex 0.332840 -0.001268 0.072694
vertex 0.332770 -0.001269 0.074547
endloop
endfacet
facet normal -0.011448 0.808648 0.588181
outer loop
vertex 0.332730 -0.002359 0.076046
vertex 0.388732 -0.001126 0.075440
vertex 0.388604 -0.000039 0.073943
endloop
endfacet
facet normal -0.011457 0.808745 0.588048
outer loop
vertex 0.388604 -0.000039 0.073943
vertex 0.332770 -0.001269 0.074547
vertex 0.332730 -0.002359 0.076046
endloop
endfacet
facet normal 0.003496 0.308747 0.951138
outer loop
vertex 0.332736 -0.004123 0.076618
vertex 0.388818 -0.002888 0.076011
vertex 0.388732 -0.001126 0.075440
endloop
endfacet
facet normal 0.003489 0.308858 0.951102
outer loop
vertex 0.388732 -0.001126 0.075440
vertex 0.332730 -0.002359 0.076046
vertex 0.332736 -0.004123 0.076618
endloop
endfacet
facet normal 0.123199 -0.305354 0.944236
outer loop
vertex 0.388829 -0.004651 0.075439
vertex 0.436202 -0.003063 0.069772
vertex 0.436236 -0.001298 0.070338
endloop
endfacet
facet normal 0.123200 -0.305385 0.944226
outer loop
vertex 0.436236 -0.001298 0.070338
vertex 0.388818 -0.002888 0.076011
vertex 0.388829 -0.004651 0.075439
endloop
endfacet
facet normal 0.096853 -0.806164 0.583712
outer loop
vertex 0.388762 -0.005743 0.073942
vertex 0.435980 -0.004160 0.068294
vertex 0.436202 -0.003063 0.069772
endloop
endfacet
facet normal 0.096853 -0.806165 0.583710
outer loop
vertex 0.436202 -0.003063 0.069772
vertex 0.388829 -0.004651 0.075439
vertex 0.388762 -0.005743 0.073942
endloop
endfacet
facet normal 0.033436 -0.999441 -0.000577
outer loop
vertex 0.388642 -0.005746 0.072092
vertex 0.435656 -0.004170 0.066468
vertex 0.435980 -0.004160 0.068294
endloop
endfacet
facet normal 0.033444 -0.999440 -0.000481
outer loop
vertex 0.435980 -0.004160 0.068294
vertex 0.388762 -0.005743 0.073942
vertex 0.388642 -0.005746 0.072092
endloop
endfacet
facet normal -0.042792 -0.810068 -0.584773
outer loop
vertex 0.388515 -0.004659 0.070595
vertex 0.435353 -0.003089 0.064992
vertex 0.435656 -0.004170 0.066468
endloop
endfacet
facet normal -0.042781 -0.810153 -0.584656
outer loop
vertex 0.435656 -0.004170 0.066468
vertex 0.388642 -0.005746 0.072092
vertex 0.388515 -0.004659 0.070595
endloop
endfacet
facet normal -0.102563 -0.311434 -0.944717
outer loop
vertex 0.388429 -0.002898 0.070024
vertex 0.435187 -0.001330 0.064431
vertex 0.435353 -0.003089 0.064992
endloop
endfacet
facet normal -0.102561 -0.311501 -0.944695
outer loop
vertex 0.435353 -0.003089 0.064992
vertex 0.388515 -0.004659 0.070595
vertex 0.388429 -0.002898 0.070024
endloop
endfacet
facet normal -0.123187 0.305360 -0.944235
outer loop
vertex 0.388417 -0.001134 0.070596
vertex 0.435222 0.000435 0.064997
vertex 0.435187 -0.001330 0.064431
endloop
endfacet
facet normal -0.123186 0.305383 -0.944228
outer loop
vertex 0.435187 -0.001330 0.064431
vertex 0.388429 -0.002898 0.070024
vertex 0.388417 -0.001134 0.070596
endloop
endfacet
facet normal -0.096853 0.806163 -0.583713
outer loop
vertex 0.388484 -0.000042 0.072093
vertex 0.435443 0.001532 0.066475
vertex 0.435222 0.000435 0.064997
endloop
endfacet
facet normal -0.096852 0.806168 -0.583706
outer loop
vertex 0.435222 0.000435 0.064997
vertex 0.388417 -0.001134 0.070596
vertex 0.388484 -0.000042 0.072093
endloop
endfacet
facet normal -0.033433 0.999441 0.000576
outer loop
vertex 0.388604 -0.000039 0.073943
vertex 0.435767 0.001542 0.068301
vertex 0.435443 0.001532 0.066475
endloop
endfacet
facet normal -0.033449 0.999440 0.000481
outer loop
vertex 0.435443 0.001532 0.066475
vertex 0.388484 -0.000042 0.072093
vertex 0.388604 -0.000039 0.073943
endloop
endfacet
facet normal 0.042807 0.810069 0.584770
outer loop
vertex 0.388732 -0.001126 0.075440
vertex 0.436070 0.000461 0.069776
vertex 0.435767 0.001542 0.068301
endloop
endfacet
facet normal 0.042785 0.810153 0.584656
outer loop
vertex 0.435767 0.001542 0.068301
vertex 0.388604 -0.000039 0.073943
vertex 0.388732 -0.001126 0.075440
endloop
endfacet
facet normal 0.102585 0.311434 0.944714
outer loop
vertex 0.388818 -0.002888 0.076011
vertex 0.436236 -0.001298 0.070338
vertex 0.436070 0.000461 0.069776
endloop
endfacet
facet normal 0.102578 0.311499 0.944694
outer loop
vertex 0.436070 0.000461 0.069776
vertex 0.388732 -0.001126 0.075440
vertex 0.388818 -0.002888 0.076011
endloop
endfacet
facet normal 0.231859 -0.301310 0.924907
outer loop
vertex 0.436202 -0.003063 0.069772
vertex 0.476023 -0.001401 0.060331
vertex 0.476111 0.000366 0.060884
endloop
endfacet
facet normal 0.231859 -0.301267 0.924921
outer loop
vertex 0.476111 0.000366 0.060884
vertex 0.436236 -0.001298 0.070338
vertex 0.436202 -0.003063 0.069772
endloop
endfacet
facet normal 0.168876 -0.803549 0.570781
outer loop
vertex 0.435980 -0.004160 0.068294
vertex 0.475643 -0.002504 0.058890
vertex 0.476023 -0.001401 0.060331
endloop
endfacet
facet normal 0.168895 -0.803456 0.570905
outer loop
vertex 0.476023 -0.001401 0.060331
vertex 0.436202 -0.003063 0.069772
vertex 0.435980 -0.004160 0.068294
endloop
endfacet
facet normal 0.041219 -0.999148 -0.002141
outer loop
vertex 0.435656 -0.004170 0.066468
vertex 0.475118 -0.002522 0.057112
vertex 0.475643 -0.002504 0.058890
endloop
endfacet
facet normal 0.041252 -0.999147 -0.001966
outer loop
vertex 0.475643 -0.002504 0.058890
vertex 0.435980 -0.004160 0.068294
vertex 0.435656 -0.004170 0.066468
endloop
endfacet
facet normal -0.102228 -0.812262 -0.574264
outer loop
vertex 0.435353 -0.003089 0.064992
vertex 0.474647 -0.001448 0.055676
vertex 0.475118 -0.002522 0.057112
endloop
endfacet
facet normal -0.102217 -0.812302 -0.574210
outer loop
vertex 0.475118 -0.002522 0.057112
vertex 0.435656 -0.004170 0.066468
vertex 0.435353 -0.003089 0.064992
endloop
endfacet
facet normal -0.206438 -0.315354 -0.926248
outer loop
vertex 0.435187 -0.001330 0.064431
vertex 0.474410 0.000309 0.055131
vertex 0.474647 -0.001448 0.055676
endloop
endfacet
facet normal -0.206439 -0.315341 -0.926252
outer loop
vertex 0.474647 -0.001448 0.055676
vertex 0.435353 -0.003089 0.064992
vertex 0.435187 -0.001330 0.064431
endloop
endfacet
facet normal -0.231877 0.301313 -0.924902
outer loop
vertex 0.435222 0.000435 0.064997
vertex 0.474499 0.002076 0.055684
vertex 0.474410 0.000309 0.055131
endloop
endfacet
facet normal -0.231880 0.301273 -0.924914
outer loop
vertex 0.474410 0.000309 0.055131
vertex 0.435187 -0.001330 0.064431
vertex 0.435222 0.000435 0.064997
endloop
endfacet
facet normal -0.168886 0.803549 -0.570777
outer loop
vertex 0.435443 0.001532 0.066475
vertex 0.474878 0.003179 0.057125
vertex 0.474499 0.002076 0.055684
endloop
endfacet
facet normal -0.168919 0.803453 -0.570902
outer loop
vertex 0.474499 0.002076 0.055684
vertex 0.435222 0.000435 0.064997
vertex 0.435443 0.001532 0.066475
endloop
endfacet
facet normal -0.041213 0.999148 0.002139
outer loop
vertex 0.435767 0.001542 0.068301
vertex 0.475404 0.003197 0.058903
vertex 0.474878 0.003179 0.057125
endloop
endfacet
facet normal -0.041261 0.999146 0.001968
outer loop
vertex 0.474878 0.003179 0.057125
vertex 0.435443 0.001532 0.066475
vertex 0.435767 0.001542 0.068301
endloop
endfacet
facet normal 0.102238 0.812261 0.574264
outer loop
vertex 0.436070 0.000461 0.069776
vertex 0.475875 0.002123 0.060339
vertex 0.475404 0.003197 0.058903
endloop
endfacet
facet normal 0.102220 0.812302 0.574209
outer loop
vertex 0.475404 0.003197 0.058903
vertex 0.435767 0.001542 0.068301
vertex 0.436070 0.000461 0.069776
endloop
endfacet
facet normal 0.206432 0.315354 0.926249
outer loop
vertex 0.436236 -0.001298 0.070338
vertex 0.476111 0.000366 0.060884
vertex 0.475875 0.002123 0.060339
endloop
endfacet
facet normal 0.206435 0.315338 0.926254
outer loop
vertex 0.475875 0.002123 0.060339
vertex 0.436070 0.000461 0.069776
vertex 0.436236 -0.001298 0.070338
endloop
endfacet
facet normal 0.332419 -0.297176 0.895089
outer loop
vertex 0.476023 -0.001401 0.060331
vertex 0.509404 0.000056 0.048417
vertex 0.509553 0.001826 0.048950
endloop
endfacet
facet normal 0.332421 -0.297016 0.895141
outer loop
vertex 0.509553 0.001826 0.048950
vertex 0.476111 0.000366 0.060884
vertex 0.476023 -0.001401 0.060331
endloop
endfacet
facet normal 0.231918 -0.801078 0.551805
outer loop
vertex 0.475643 -0.002504 0.058890
vertex 0.508878 -0.001053 0.047028
vertex 0.509404 0.000056 0.048417
endloop
endfacet
facet normal 0.231992 -0.800855 0.552097
outer loop
vertex 0.509404 0.000056 0.048417
vertex 0.476023 -0.001401 0.060331
vertex 0.475643 -0.002504 0.058890
endloop
endfacet
facet normal 0.042625 -0.999087 -0.002822
outer loop
vertex 0.475118 -0.002522 0.057112
vertex 0.508175 -0.001078 0.045313
vertex 0.508878 -0.001053 0.047028
endloop
endfacet
facet normal 0.042697 -0.999085 -0.002578
outer loop
vertex 0.508878 -0.001053 0.047028
vertex 0.475643 -0.002504 0.058890
vertex 0.475118 -0.002522 0.057112
endloop
endfacet
facet normal -0.162963 -0.814876 -0.556255
outer loop
vertex 0.474647 -0.001448 0.055676
vertex 0.507564 -0.000010 0.043926
vertex 0.508175 -0.001078 0.045313
endloop
endfacet
facet normal -0.162971 -0.814856 -0.556282
outer loop
vertex 0.508175 -0.001078 0.045313
vertex 0.475118 -0.002522 0.057112
vertex 0.474647 -0.001448 0.055676
endloop
endfacet
facet normal -0.306124 -0.319699 -0.896705
outer loop
vertex 0.474410 0.000309 0.055131
vertex 0.507278 0.001744 0.043398
vertex 0.507564 -0.000010 0.043926
endloop
endfacet
facet normal -0.306133 -0.319610 -0.896734
outer loop
vertex 0.507564 -0.000010 0.043926
vertex 0.474647 -0.001448 0.055676
vertex 0.474410 0.000309 0.055131
endloop
endfacet
facet normal -0.332480 0.297174 -0.895067
outer loop
vertex 0.474499 0.002076 0.055684
vertex 0.507427 0.003514 0.043931
vertex 0.507278 0.001744 0.043398
endloop
endfacet
facet normal -0.332498 0.297016 -0.895113
outer loop
vertex 0.507278 0.001744 0.043398
vertex 0.474410 0.000309 0.055131
vertex 0.474499 0.002076 0.055684
endloop
endfacet
facet normal -0.231938 0.801078 -0.551796
outer loop
vertex 0.474878 0.003179 0.057125
vertex 0.507954 0.004624 0.045320
vertex 0.507427 0.003514 0.043931
endloop
endfacet
facet normal -0.232050 0.800852 -0.552077
outer loop
vertex 0.507427 0.003514 0.043931
vertex 0.474499 0.002076 0.055684
vertex 0.474878 0.003179 0.057125
endloop
endfacet
facet normal -0.042610 0.999088 0.002818
outer loop
vertex 0.475404 0.003197 0.058903
vertex 0.508657 0.004649 0.047035
vertex 0.507954 0.004624 0.045320
endloop
endfacet
facet normal -0.042709 0.999084 0.002582
outer loop
vertex 0.507954 0.004624 0.045320
vertex 0.474878 0.003179 0.057125
vertex 0.475404 0.003197 0.058903
endloop
endfacet
facet normal 0.162957 0.814875 0.556259
outer loop
vertex 0.475875 0.002123 0.060339
vertex 0.509268 0.003580 0.048422
vertex 0.508657 0.004649 0.047035
endloop
endfacet
facet normal 0.162970 0.814854 0.556286
outer loop
vertex 0.508657 0.004649 0.047035
vertex 0.475404 0.003197 0.058903
vertex 0.475875 0.002123 0.060339
endloop
endfacet
facet normal 0.306074 0.319687 0.896727
outer loop
vertex 0.476111 0.000366 0.060884
vertex 0.509553 0.001826 0.048950
vertex 0.509268 0.003580 0.048422
endloop
endfacet
facet normal 0.306090 0.319609 0.896749
outer loop
vertex 0.509268 0.003580 0.048422
vertex 0.475875 0.002123 0.060339
vertex 0.476111 0.000366 0.060884
endloop
endfacet
facet normal 0.411992 -0.294374 0.862326
outer loop
vertex 0.509404 0.000056 0.048417
vertex 0.537455 0.001027 0.035347
vertex 0.537669 0.002799 0.035850
endloop
endfacet
facet normal 0.412007 -0.294055 0.862428
outer loop
vertex 0.537669 0.002799 0.035850
vertex 0.509553 0.001826 0.048950
vertex 0.509404 0.000056 0.048417
endloop
endfacet
facet normal 0.276157 -0.799669 0.533167
outer loop
vertex 0.508878 -0.001053 0.047028
vertex 0.536808 -0.000086 0.034013
vertex 0.537455 0.001027 0.035347
endloop
endfacet
facet normal 0.276305 -0.799337 0.533588
outer loop
vertex 0.537455 0.001027 0.035347
vertex 0.509404 0.000056 0.048417
vertex 0.508878 -0.001053 0.047028
endloop
endfacet
facet normal 0.034705 -0.999398 0.000130
outer loop
vertex 0.508175 -0.001078 0.045313
vertex 0.535975 -0.000115 0.032357
vertex 0.536808 -0.000086 0.034013
endloop
endfacet
facet normal 0.034806 -0.999394 0.000387
outer loop
vertex 0.536808 -0.000086 0.034013
vertex 0.508878 -0.001053 0.047028
vertex 0.508175 -0.001078 0.045313
endloop
endfacet
facet normal -0.219969 -0.817174 -0.532767
outer loop
vertex 0.507564 -0.000010 0.043926
vertex 0.535275 0.000951 0.031011
vertex 0.535975 -0.000115 0.032357
endloop
endfacet
facet normal -0.220000 -0.817114 -0.532845
outer loop
vertex 0.535975 -0.000115 0.032357
vertex 0.508175 -0.001078 0.045313
vertex 0.507564 -0.000010 0.043926
endloop
endfacet
facet normal -0.390564 -0.323069 -0.862024
outer loop
vertex 0.507278 0.001744 0.043398
vertex 0.534974 0.002705 0.030490
vertex 0.535275 0.000951 0.031011
endloop
endfacet
facet normal -0.390570 -0.323014 -0.862042
outer loop
vertex 0.535275 0.000951 0.031011
vertex 0.507564 -0.000010 0.043926
vertex 0.507278 0.001744 0.043398
endloop
endfacet
facet normal -0.412076 0.294375 -0.862286
outer loop
vertex 0.507427 0.003514 0.043931
vertex 0.535188 0.004477 0.030992
vertex 0.534974 0.002705 0.030490
endloop
endfacet
facet normal -0.412128 0.294048 -0.862373
outer loop
vertex 0.534974 0.002705 0.030490
vertex 0.507278 0.001744 0.043398
vertex 0.507427 0.003514 0.043931
endloop
endfacet
facet normal -0.276169 0.799669 -0.533161
outer loop
vertex 0.507954 0.004624 0.045320
vertex 0.535835 0.005590 0.032327
vertex 0.535188 0.004477 0.030992
endloop
endfacet
facet normal -0.276378 0.799333 -0.533556
outer loop
vertex 0.535188 0.004477 0.030992
vertex 0.507427 0.003514 0.043931
vertex 0.507954 0.004624 0.045320
endloop
endfacet
facet normal -0.034681 0.999398 -0.000142
outer loop
vertex 0.508657 0.004649 0.047035
vertex 0.536668 0.005619 0.033983
vertex 0.535835 0.005590 0.032327
endloop
endfacet
facet normal -0.034811 0.999394 -0.000383
outer loop
vertex 0.535835 0.005590 0.032327
vertex 0.507954 0.004624 0.045320
vertex 0.508657 0.004649 0.047035
endloop
endfacet
facet normal 0.219945 0.817172 0.532780
outer loop
vertex 0.509268 0.003580 0.048422
vertex 0.537369 0.004553 0.035329
vertex 0.536668 0.005619 0.033983
endloop
endfacet
facet normal 0.219987 0.817114 0.532852
outer loop
vertex 0.536668 0.005619 0.033983
vertex 0.508657 0.004649 0.047035
vertex 0.509268 0.003580 0.048422
endloop
endfacet
facet normal 0.390473 0.323066 0.862067
outer loop
vertex 0.509553 0.001826 0.048950
vertex 0.537669 0.002799 0.035850
vertex 0.537369 0.004553 0.035329
endloop
endfacet
facet normal 0.390488 0.323000 0.862085
outer loop
vertex 0.537369 0.004553 0.035329
vertex 0.509268 0.003580 0.048422
vertex 0.509553 0.001826 0.048950
endloop
endfacet
facet normal 0.457096 -0.293938 0.839443
outer loop
vertex 0.537455 0.001027 0.035347
vertex 0.561281 0.001237 0.022447
vertex 0.561563 0.003009 0.022914
endloop
endfacet
facet normal 0.457138 -0.293386 0.839613
outer loop
vertex 0.561563 0.003009 0.022914
vertex 0.537669 0.002799 0.035850
vertex 0.537455 0.001027 0.035347
endloop
endfacet
facet normal 0.291349 -0.799660 0.525033
outer loop
vertex 0.536808 -0.000086 0.034013
vertex 0.560557 0.000124 0.021153
vertex 0.561281 0.001237 0.022447
endloop
endfacet
facet normal 0.291522 -0.799332 0.525436
outer loop
vertex 0.561281 0.001237 0.022447
vertex 0.537455 0.001027 0.035347
vertex 0.536808 -0.000086 0.034013
endloop
endfacet
facet normal 0.014338 -0.999845 0.010190
outer loop
vertex 0.535975 -0.000115 0.032357
vertex 0.559668 0.000094 0.019526
vertex 0.560557 0.000124 0.021153
endloop
endfacet
facet normal 0.014408 -0.999843 0.010343
outer loop
vertex 0.560557 0.000124 0.021153
vertex 0.536808 -0.000086 0.034013
vertex 0.535975 -0.000115 0.032357
endloop
endfacet
facet normal -0.268153 -0.818248 -0.508492
outer loop
vertex 0.535275 0.000951 0.031011
vertex 0.558953 0.001160 0.018188
vertex 0.559668 0.000094 0.019526
endloop
endfacet
facet normal -0.268164 -0.818229 -0.508517
outer loop
vertex 0.559668 0.000094 0.019526
vertex 0.535975 -0.000115 0.032357
vertex 0.535275 0.000951 0.031011
endloop
endfacet
facet normal -0.448270 -0.324114 -0.833069
outer loop
vertex 0.534974 0.002705 0.030490
vertex 0.558686 0.002914 0.017649
vertex 0.558953 0.001160 0.018188
endloop
endfacet
facet normal -0.448247 -0.324333 -0.832996
outer loop
vertex 0.558953 0.001160 0.018188
vertex 0.535275 0.000951 0.031011
vertex 0.534974 0.002705 0.030490
endloop
endfacet
facet normal -0.457118 0.293939 -0.839430
outer loop
vertex 0.535188 0.004477 0.030992
vertex 0.558968 0.004686 0.018116
vertex 0.558686 0.002914 0.017649
endloop
endfacet
facet normal -0.457231 0.293384 -0.839563
outer loop
vertex 0.558686 0.002914 0.017649
vertex 0.534974 0.002705 0.030490
vertex 0.535188 0.004477 0.030992
endloop
endfacet
facet normal -0.291303 0.799660 -0.525059
outer loop
vertex 0.535835 0.005590 0.032327
vertex 0.559692 0.005799 0.019410
vertex 0.558968 0.004686 0.018116
endloop
endfacet
facet normal -0.291541 0.799332 -0.525426
outer loop
vertex 0.558968 0.004686 0.018116
vertex 0.535188 0.004477 0.030992
vertex 0.535835 0.005590 0.032327
endloop
endfacet
facet normal -0.014299 0.999846 -0.010211
outer loop
vertex 0.536668 0.005619 0.033983
vertex 0.560581 0.005829 0.021037
vertex 0.559692 0.005799 0.019410
endloop
endfacet
facet normal -0.014388 0.999843 -0.010353
outer loop
vertex 0.559692 0.005799 0.019410
vertex 0.535835 0.005590 0.032327
vertex 0.536668 0.005619 0.033983
endloop
endfacet
facet normal 0.268118 0.818248 0.508510
outer loop
vertex 0.537369 0.004553 0.035329
vertex 0.561295 0.004763 0.022375
vertex 0.560581 0.005829 0.021037
endloop
endfacet
facet normal 0.268134 0.818229 0.508533
outer loop
vertex 0.560581 0.005829 0.021037
vertex 0.536668 0.005619 0.033983
vertex 0.537369 0.004553 0.035329
endloop
endfacet
facet normal 0.448197 0.324114 0.833108
outer loop
vertex 0.537669 0.002799 0.035850
vertex 0.561563 0.003009 0.022914
vertex 0.561295 0.004763 0.022375
endloop
endfacet
facet normal 0.448146 0.324332 0.833051
outer loop
vertex 0.561295 0.004763 0.022375
vertex 0.537369 0.004553 0.035329
vertex 0.537669 0.002799 0.035850
endloop
endfacet
facet normal 0.452321 -0.294709 0.841756
outer loop
vertex 0.561281 0.001237 0.022447
vertex 0.581973 0.000419 0.011041
vertex 0.582326 0.002188 0.011471
endloop
endfacet
facet normal 0.452411 -0.293866 0.842002
outer loop
vertex 0.582326 0.002188 0.011471
vertex 0.561563 0.003009 0.022914
vertex 0.561281 0.001237 0.022447
endloop
endfacet
facet normal 0.265520 -0.799342 0.539029
outer loop
vertex 0.560557 0.000124 0.021153
vertex 0.581237 -0.000694 0.009754
vertex 0.581973 0.000419 0.011041
endloop
endfacet
facet normal 0.265562 -0.799266 0.539120
outer loop
vertex 0.581973 0.000419 0.011041
vertex 0.561281 0.001237 0.022447
vertex 0.560557 0.000124 0.021153
endloop
endfacet
facet normal -0.022643 -0.999275 0.030617
outer loop
vertex 0.559668 0.000094 0.019526
vertex 0.580398 -0.000726 0.008101
vertex 0.581237 -0.000694 0.009754
endloop
endfacet
facet normal -0.022726 -0.999278 0.030435
outer loop
vertex 0.581237 -0.000694 0.009754
vertex 0.560557 0.000124 0.021153
vertex 0.559668 0.000094 0.019526
endloop
endfacet
facet normal -0.302421 -0.817518 -0.490108
outer loop
vertex 0.558953 0.001160 0.018188
vertex 0.579777 0.000336 0.006713
vertex 0.580398 -0.000726 0.008101
endloop
endfacet
facet normal -0.302310 -0.817724 -0.489833
outer loop
vertex 0.580398 -0.000726 0.008101
vertex 0.559668 0.000094 0.019526
vertex 0.558953 0.001160 0.018188
endloop
endfacet
facet normal -0.466467 -0.322882 -0.823502
outer loop
vertex 0.558686 0.002914 0.017649
vertex 0.579611 0.002085 0.006121
vertex 0.579777 0.000336 0.006713
endloop
endfacet
facet normal -0.466407 -0.323835 -0.823162
outer loop
vertex 0.579777 0.000336 0.006713
vertex 0.558953 0.001160 0.018188
vertex 0.558686 0.002914 0.017649
endloop
endfacet
facet normal -0.452065 0.294693 -0.841899
outer loop
vertex 0.558968 0.004686 0.018116
vertex 0.579964 0.003854 0.006551
vertex 0.579611 0.002085 0.006121
endloop
endfacet
facet normal -0.452272 0.293865 -0.842077
outer loop
vertex 0.579611 0.002085 0.006121
vertex 0.558686 0.002914 0.017649
vertex 0.558968 0.004686 0.018116
endloop
endfacet
facet normal -0.265293 0.799334 -0.539152
outer loop
vertex 0.559692 0.005799 0.019410
vertex 0.580700 0.004967 0.007838
vertex 0.579964 0.003854 0.006551
endloop
endfacet
facet normal -0.265352 0.799260 -0.539233
outer loop
vertex 0.579964 0.003854 0.006551
vertex 0.558968 0.004686 0.018116
vertex 0.559692 0.005799 0.019410
endloop
endfacet
facet normal 0.022705 0.999272 -0.030649
outer loop
vertex 0.560581 0.005829 0.021037
vertex 0.581539 0.004998 0.009492
vertex 0.580700 0.004967 0.007838
endloop
endfacet
facet normal 0.022815 0.999275 -0.030483
outer loop
vertex 0.580700 0.004967 0.007838
vertex 0.559692 0.005799 0.019410
vertex 0.560581 0.005829 0.021037
endloop
endfacet
facet normal 0.302411 0.817519 0.490113
outer loop
vertex 0.561295 0.004763 0.022375
vertex 0.582160 0.003937 0.010879
vertex 0.581539 0.004998 0.009492
endloop
endfacet
facet normal 0.302251 0.817726 0.489866
outer loop
vertex 0.581539 0.004998 0.009492
vertex 0.560581 0.005829 0.021037
vertex 0.561295 0.004763 0.022375
endloop
endfacet
facet normal 0.466579 0.322872 0.823443
outer loop
vertex 0.561563 0.003009 0.022914
vertex 0.582326 0.002188 0.011471
vertex 0.582160 0.003937 0.010879
endloop
endfacet
facet normal 0.466380 0.323836 0.823177
outer loop
vertex 0.582160 0.003937 0.010879
vertex 0.561295 0.004763 0.022375
vertex 0.561563 0.003009 0.022914
endloop
endfacet
facet normal 0.374913 -0.289559 0.880679
outer loop
vertex 0.581973 0.000419 0.011041
vertex 0.600650 -0.001676 0.002402
vertex 0.601075 0.000084 0.002799
endloop
endfacet
facet normal 0.375015 -0.288802 0.880884
outer loop
vertex 0.601075 0.000084 0.002799
vertex 0.582326 0.002188 0.011471
vertex 0.581973 0.000419 0.011041
endloop
endfacet
facet normal 0.180524 -0.792509 0.582530
outer loop
vertex 0.581237 -0.000694 0.009754
vertex 0.599977 -0.002796 0.001087
vertex 0.600650 -0.001676 0.002402
endloop
endfacet
facet normal 0.180355 -0.792842 0.582128
outer loop
vertex 0.600650 -0.001676 0.002402
vertex 0.581973 0.000419 0.011041
vertex 0.581237 -0.000694 0.009754
endloop
endfacet
facet normal -0.083048 -0.994627 0.061806
outer loop
vertex 0.580398 -0.000726 0.008101
vertex 0.599312 -0.002848 -0.000644
vertex 0.599977 -0.002796 0.001087
endloop
endfacet
facet normal -0.083240 -0.994644 0.061275
outer loop
vertex 0.599977 -0.002796 0.001087
vertex 0.581237 -0.000694 0.009754
vertex 0.580398 -0.000726 0.008101
endloop
endfacet
facet normal -0.315383 -0.816130 -0.484216
outer loop
vertex 0.579777 0.000336 0.006713
vertex 0.598910 -0.001812 -0.002128
vertex 0.599312 -0.002848 -0.000644
endloop
endfacet
facet normal -0.315229 -0.816538 -0.483628
outer loop
vertex 0.599312 -0.002848 -0.000644
vertex 0.580398 -0.000726 0.008101
vertex 0.579777 0.000336 0.006713
endloop
endfacet
facet normal -0.426428 -0.324499 -0.844310
outer loop
vertex 0.579611 0.002085 0.006121
vertex 0.598925 -0.000084 -0.002799
vertex 0.598910 -0.001812 -0.002128
endloop
endfacet
facet normal -0.426472 -0.325939 -0.843733
outer loop
vertex 0.598910 -0.001812 -0.002128
vertex 0.579777 0.000336 0.006713
vertex 0.579611 0.002085 0.006121
endloop
endfacet
facet normal -0.374319 0.289478 -0.880958
outer loop
vertex 0.579964 0.003854 0.006551
vertex 0.599350 0.001676 -0.002402
vertex 0.598925 -0.000084 -0.002799
endloop
endfacet
facet normal -0.374539 0.288760 -0.881101
outer loop
vertex 0.598925 -0.000084 -0.002799
vertex 0.579611 0.002085 0.006121
vertex 0.579964 0.003854 0.006551
endloop
endfacet
facet normal -0.180125 0.792472 -0.582703
outer loop
vertex 0.580700 0.004967 0.007838
vertex 0.600024 0.002796 -0.001087
vertex 0.599350 0.001676 -0.002402
endloop
endfacet
facet normal -0.179877 0.792786 -0.582353
outer loop
vertex 0.599350 0.001676 -0.002402
vertex 0.579964 0.003854 0.006551
vertex 0.580700 0.004967 0.007838
endloop
endfacet
facet normal 0.083111 0.994621 -0.061827
outer loop
vertex 0.581539 0.004998 0.009492
vertex 0.600688 0.002848 0.000644
vertex 0.600024 0.002796 -0.001087
endloop
endfacet
facet normal 0.083386 0.994627 -0.061348
outer loop
vertex 0.600024 0.002796 -0.001087
vertex 0.580700 0.004967 0.007838
vertex 0.581539 0.004998 0.009492
endloop
endfacet
facet normal 0.315435 0.816127 0.484188
outer loop
vertex 0.582160 0.003937 0.010879
vertex 0.601090 0.001812 0.002128
vertex 0.600688 0.002848 0.000644
endloop
endfacet
facet normal 0.315168 0.816543 0.483659
outer loop
vertex 0.600688 0.002848 0.000644
vertex 0.581539 0.004998 0.009492
vertex 0.582160 0.003937 0.010879
endloop
endfacet
facet normal 0.426815 0.324430 0.844141
outer loop
vertex 0.582326 0.002188 0.011471
vertex 0.601075 0.000084 0.002799
vertex 0.601090 0.001812 0.002128
endloop
endfacet
facet normal 0.426609 0.325930 0.843667
outer loop
vertex 0.601090 0.001812 0.002128
vertex 0.582160 0.003937 0.010879
vertex 0.582326 0.002188 0.011471
endloop
endfacet
endsolid Exported from Blender-2.71 (sub 0)
